<svg width="40" height="40" viewBox="0 0 40 40" fill="none" xmlns="http://www.w3.org/2000/svg">
<path d="M8.33325 15C11.0947 15 13.3333 12.7614 13.3333 10C13.3333 7.23858 11.0947 5 8.33325 5C5.57183 5 3.33325 7.23858 3.33325 10C3.33325 12.7614 5.57183 15 8.33325 15Z" stroke="#469585" stroke-width="4.16667" stroke-linecap="round" stroke-linejoin="round"/>
<path d="M20 10H28.3333C29.2174 10 30.0652 10.3512 30.6904 10.9763C31.3155 11.6014 31.6667 12.4493 31.6667 13.3333V25" stroke="#469585" stroke-width="4.16667" stroke-linecap="round" stroke-linejoin="round"/>
<path d="M25 15L20 10L25 5" stroke="#469585" stroke-width="4.16667" stroke-linecap="round" stroke-linejoin="round"/>
<path d="M31.6667 35C34.4282 35 36.6667 32.7614 36.6667 30C36.6667 27.2386 34.4282 25 31.6667 25C28.9053 25 26.6667 27.2386 26.6667 30C26.6667 32.7614 28.9053 35 31.6667 35Z" stroke="#469585" stroke-width="4.16667" stroke-linecap="round" stroke-linejoin="round"/>
<path d="M19.9999 30H11.6666C10.7825 30 9.93468 29.6488 9.30956 29.0237C8.68444 28.3986 8.33325 27.5507 8.33325 26.6667V15" stroke="#469585" stroke-width="4.16667" stroke-linecap="round" stroke-linejoin="round"/>
<path d="M15 25L20 30L15 35" stroke="#469585" stroke-width="4.16667" stroke-linecap="round" stroke-linejoin="round"/>
</svg>
