<?xml version="1.0" encoding="UTF-8"?><svg id="a" xmlns="http://www.w3.org/2000/svg" viewBox="0 0 786.66 116.8"><defs><style>.b{fill:#e2a602;}.c{fill:#252525;}</style></defs><path class="c" d="M64.38,92.47c-21.68,0-36.94-14.16-36.94-34.07s15.26-34.07,36.94-34.07c3.79,0,15.14,.55,25.76,7.62,1.3,.86,3.06,.27,3.61-1.19,2.1-5.6,4.83-10.89,8.09-15.79,.76-1.14,.4-2.68-.76-3.41C85.97,1.98,72.81,0,63.05,0,23.45,0,0,25.88,0,59.07s24.12,57.73,63.05,57.73c5.42,0,11.89-.61,19.16-2.82,5.8-1.77,12.12-4.55,18.81-8.87,1.14-.74,1.49-2.27,.74-3.4-3.24-4.88-5.94-10.15-8.02-15.72-.54-1.45-2.3-2.05-3.6-1.2-10.63,6.95-21.98,7.67-25.77,7.67Z"/><path class="c" d="M308.59,52.65c0-19.47-7.74-29.64-20.79-29.64s-24.55,9.51-25.22,34.07v54.84c0,1.35-1.1,2.45-2.45,2.45h-22.3c-1.35,0-2.45-1.1-2.45-2.45V4.89c0-1.35,1.1-2.45,2.45-2.45h22.3c1.35,0,2.45,1.1,2.45,2.45v7.32c0,2.37,2.99,3.33,4.43,1.44C273.75,4.77,284.09,0,295.54,0c12.73,0,25.28,4.62,32.92,17.23,.92,1.53,3.18,1.53,4.12,.02C341.67,2.65,355.95,0,367.21,0c28.98,0,41.59,20.13,41.59,52.43v59.49c0,1.35-1.1,2.45-2.45,2.45h-22.31c-1.35,0-2.45-1.1-2.45-2.45V52.65c0-19.47-7.75-29.64-20.79-29.64s-24.56,9.51-25.22,34.07v54.84c0,1.35-1.1,2.45-2.45,2.45h-22.09c-1.35,0-2.45-1.1-2.45-2.45V52.65Z"/><path class="c" d="M540.21,4.89V111.92c0,1.35-1.1,2.45-2.45,2.45h-22.31c-1.35,0-2.45-1.1-2.45-2.45v-7.28c0-2.21-2.71-3.31-4.21-1.69-8.22,8.85-20.28,13.86-34.06,13.86-33.18,0-54.86-26.11-54.86-58.85S440.66,0,474.95,0c12.85,0,24.9,4.52,33.79,13.84,1.54,1.62,4.26,.59,4.26-1.65V4.89c0-1.35,1.1-2.45,2.45-2.45h22.31c1.35,0,2.45,1.1,2.45,2.45Zm-59.95,89.13c18.58,0,33.4-12.61,33.4-34.73s-13.94-36.5-34.07-36.5-32.3,16.15-32.3,35.4,12.61,35.84,32.96,35.84Z"/><path class="c" d="M562.58,2.44h22.3c1.35,0,2.45,1.1,2.45,2.45v7.77c0,2.32,2.94,3.35,4.36,1.52C599.24,4.48,610.53,0,623.61,0c27.87,0,41.37,20.13,41.37,52.43v59.49c0,1.35-1.1,2.45-2.45,2.45h-22.31c-1.35,0-2.45-1.1-2.45-2.45V52.65c0-19.47-8.18-29.64-21.68-29.64-15.93,0-28.76,11.95-28.76,35.4v53.52c0,1.35-1.1,2.45-2.45,2.45h-22.3c-1.35,0-2.45-1.1-2.45-2.45V4.89c0-1.35,1.1-2.45,2.45-2.45Z"/><path class="c" d="M784.21,114.37h-22.31c-1.35,0-2.45-1.1-2.45-2.45v-7.74c0-2.32-2.95-3.35-4.37-1.51-7.49,9.67-18.62,14.14-31.69,14.14-27.87,0-41.59-20.13-41.59-52.43V4.89c0-1.35,1.1-2.45,2.45-2.45h22.3c1.35,0,2.45,1.1,2.45,2.45v59.27c0,18.14,7.08,28.76,21.68,28.76,12.61,0,28.76-10.4,28.76-42.03V4.89c0-1.35,1.1-2.45,2.45-2.45h22.31c1.35,0,2.45,1.1,2.45,2.45V111.92c0,1.35-1.1,2.45-2.45,2.45Z"/><g><path class="c" d="M212.41,34.35l-27.36,38.16c-.94,1.31-2.87,1.39-3.91,.16l-18.91-22.25c-1.01-1.19-2.87-1.16-3.84,.07l-36.47,45.99c-.78,.98-.72,2.4,.16,3.29,11.72,11.69,28.38,18.43,46.58,16.81,27.72-2.47,50.14-24.76,52.77-52.47,1-10.5-.8-20.5-4.72-29.34-.77-1.75-3.18-1.96-4.29-.41Z"/><path class="b" d="M130.66,52.71c2.32-13.89,13.55-24.92,27.47-27.02,14.7-2.22,27.91,5.24,34.27,16.96,.86,1.59,3.12,1.69,4.17,.22l12.64-17.62c.64-.89,.64-2.11-.04-2.98C197.72,7.75,179.53-1.21,159.31,.13c-28.71,1.9-52.06,25.01-54.25,53.69-.97,12.71,2.14,24.63,8.14,34.62,.9,1.49,3.01,1.63,4.1,.27l14.09-17.77c.52-.66,.66-1.53,.4-2.34-1.59-4.9-2.07-10.3-1.13-15.9Z"/></g></svg>