<svg width="358" height="210" viewBox="0 0 358 210" fill="none" xmlns="http://www.w3.org/2000/svg">
<g clip-path="url(#clip0_5761_2337)">
<path d="M217.837 95.1674C210.679 71.5111 194.499 54.4498 178.749 45.3261C145.869 26.7398 121.384 35.6098 122.287 35.6211C121.853 37.9086 145.88 31.9848 175.397 50.7123C186.466 57.8248 197.519 69.1674 204.744 84.0011C207.211 107.58 184.241 111.889 177.961 92.4335C170.716 69.9897 164.844 60.0897 156.231 61.2422C148.009 62.1335 141.054 84.191 137.997 93.6772C134.935 103.17 127.422 130.506 121.787 142.846C116.152 155.181 107.395 160.641 98.99 160.428C90.5857 160.216 83.8875 154.679 76.6625 141.14C74.2713 140.708 67.7606 139.61 67.7606 139.61C71.1786 156.855 85.9793 176.026 100.787 175.82C115.597 175.614 122.918 165.603 130.699 144.241C138.479 122.876 144.544 100.816 158.093 100.32C168.999 99.6609 170.668 113.825 173.619 124.16C176.566 134.502 181.967 153.625 196.127 153.705C201.603 153.705 205.756 150.227 208.822 145.615C206.434 152.855 203.022 159.895 198.497 166.413C183.859 187.597 160.197 199.85 138.022 201.317C115.679 203.246 95.6343 195.682 82.0618 185.561C54.3318 164.407 51.0906 139.958 49.2831 141.128C48.7806 140.331 49.4293 166.276 78.1968 190.588C92.2656 202.145 113.993 211.211 138.622 209.56C163.093 208.431 189.637 195.068 205.872 171.523C222.179 148.038 225.262 118.466 217.821 95.1734" fill="#79B41C"/>
<path d="M45.8937 130.6H2.595C1.09175 130.6 0 129.507 0 128.004V36.2161C0 34.7136 1.0918 33.6211 2.59525 33.6211H45.894C47.396 33.6211 48.4893 34.7136 48.4893 36.2161V41.9523C48.4893 43.4561 47.396 44.5486 45.894 44.5486H11.6103V75.9636H43.1628C44.6646 75.9636 45.7584 77.0561 45.7584 78.5586V84.2961C45.7584 85.7982 44.6646 86.891 43.1628 86.891H11.6103V119.671H45.894C47.396 119.671 48.4893 120.765 48.4893 122.267V128.003C48.4893 129.507 47.396 130.6 45.894 130.6" fill="#5B5F63"/>
<path d="M86.3249 131.965C75.5339 131.965 66.3824 129.37 66.3824 129.37C64.7441 128.96 63.7866 128.14 63.7866 126.639V120.492C63.7866 118.989 64.8804 118.442 66.3824 118.716C66.3824 118.716 78.2651 121.038 86.0511 121.038C97.3881 121.038 103.399 115.165 103.399 105.604V99.7299C103.399 90.1702 97.3879 85.6611 87.0074 85.6611H73.2124C71.7105 85.6611 70.6172 84.5687 70.6172 83.0662V77.3287C70.6172 75.8275 71.7105 74.7337 73.2124 74.7337H84.2754C94.6562 74.7337 100.667 70.2275 100.667 60.6662V57.6612C100.667 48.1 94.9302 43.1825 85.2316 43.1825C77.4469 43.1825 66.3829 45.5037 66.3829 45.5037C64.8809 45.7775 63.7871 45.0937 63.7871 43.5912V37.4462C63.7871 35.9425 64.4712 35.26 66.3829 34.8512C66.3829 34.8512 74.4419 32.2562 85.5054 32.2562C102.715 32.2562 112.277 40.0412 112.277 57.6612V60.6662C112.277 69.5437 108.726 75.5537 102.853 79.3787C110.229 82.93 115.01 89.6216 115.01 99.73V105.604C115.01 123.496 104.764 131.965 86.325 131.965" fill="#5B5F63"/>
<path d="M284.113 65.0374C284.113 54.5199 279.195 44.5499 265.674 44.5499H247.233V119.672H265.674C279.195 119.672 284.113 109.702 284.113 99.1848V65.0374V65.0374ZM265.674 130.601H238.219C236.715 130.601 235.624 129.508 235.624 128.005V36.2173C235.624 34.7148 236.715 33.6223 238.219 33.6223H265.674C286.57 33.6223 295.721 46.8711 295.721 65.0374V99.1848C295.721 117.352 286.57 130.601 265.674 130.601" fill="#5B5F63"/>
<path d="M354.725 130.6C354.725 130.6 347.214 131.965 340.384 131.965C320.441 131.965 311.427 118.716 311.427 100.55V63.6721C311.427 45.5046 320.305 32.2571 340.384 32.2571C347.759 32.2571 354.725 33.7584 354.725 33.7584C356.365 34.1684 357.184 34.8521 357.184 36.3534V42.3633C357.184 43.8671 356.091 44.5496 354.59 44.4134C354.59 44.4134 346.94 43.1834 340.794 43.1834C327.954 43.1834 323.036 53.1546 323.036 63.6721V100.55C323.036 111.067 327.816 121.038 340.794 121.038C346.258 121.038 354.59 119.809 354.59 119.809C356.091 119.672 357.184 120.357 357.184 121.858V128.005C357.184 129.508 356.365 130.19 354.725 130.601" fill="#5B5F63"/>
<path d="M132.45 22.1624H122.668C122.329 22.1624 122.083 21.9161 122.083 21.5761V0.841095C122.083 0.502345 122.329 0.256104 122.668 0.256104H132.45C132.79 0.256104 133.037 0.502345 133.037 0.841095V2.13734C133.037 2.47734 132.79 2.7236 132.45 2.7236H124.705V9.82109H131.832C132.172 9.82109 132.42 10.0673 132.42 10.4073V11.7023C132.42 12.0423 132.172 12.2886 131.832 12.2886H124.705V19.6949H132.45C132.79 19.6949 133.037 19.9411 133.037 20.2811V21.5761C133.037 21.9161 132.79 22.1624 132.45 22.1624Z" fill="#5B5F63"/>
<path d="M151.262 22.1624H149.627C149.287 22.1624 149.071 21.8848 148.916 21.5761L140.894 5.99484V21.5761C140.894 21.9161 140.647 22.1624 140.309 22.1624H138.857C138.517 22.1624 138.271 21.9161 138.271 21.5761V0.841095C138.271 0.502345 138.517 0.256104 138.857 0.256104H140.464C140.864 0.256104 141.017 0.471096 141.172 0.779846L149.226 16.4236V0.841095C149.226 0.502345 149.472 0.256104 149.812 0.256104H151.262C151.602 0.256104 151.849 0.502345 151.849 0.841095V21.5761C151.849 21.9161 151.602 22.1624 151.262 22.1624" fill="#5B5F63"/>
<path d="M168.063 22.1624H158.28C157.941 22.1624 157.695 21.9161 157.695 21.5761V0.841095C157.695 0.502345 157.941 0.256104 158.28 0.256104H168.063C168.403 0.256104 168.649 0.502345 168.649 0.841095V2.13734C168.649 2.47734 168.403 2.7236 168.063 2.7236H160.318V9.82109H167.445C167.785 9.82109 168.031 10.0673 168.031 10.4073V11.7023C168.031 12.0423 167.785 12.2886 167.445 12.2886H160.318V19.6949H168.063C168.403 19.6949 168.649 19.9411 168.649 20.2811V21.5761C168.649 21.9161 168.403 22.1624 168.063 22.1624Z" fill="#5B5F63"/>
<path d="M180.063 2.72485H176.515V10.4386H180.063C182.811 10.4386 184.23 8.9586 184.23 6.58235C184.23 4.2061 182.811 2.72485 180.063 2.72485V2.72485ZM187.038 22.1636H185.125C184.754 22.1636 184.538 21.8561 184.353 21.5773L179.201 12.9073H176.515V21.5773C176.515 21.9173 176.269 22.1636 175.929 22.1636H174.479C174.14 22.1636 173.893 21.9173 173.893 21.5773V0.842346C173.893 0.503596 174.14 0.257355 174.479 0.257355H180.063C184.508 0.257355 186.853 2.4786 186.853 6.58235C186.853 10.0074 185.249 12.1048 182.163 12.7211L187.438 21.5773C187.624 21.8561 187.376 22.1636 187.038 22.1636" fill="#5B5F63"/>
<path d="M198.875 22.4749C194.154 22.4749 192.087 19.4823 192.087 15.3773V7.6636C192.087 2.97485 194.432 -0.0489044 199.492 -0.0489044C202.239 -0.0489044 204.491 0.659851 204.491 0.659851C204.861 0.752351 205.046 0.907344 205.046 1.24609V2.63484C205.046 2.97484 204.799 3.15985 204.459 3.0986C204.459 3.0986 201.682 2.41859 199.492 2.41859C196.069 2.41859 194.709 4.70235 194.709 7.6636V15.3773C194.709 17.7536 195.82 20.0074 198.875 20.0074C201.467 20.0074 203.041 19.1436 203.041 19.1436V12.6011H198.999C198.659 12.6011 198.412 12.3536 198.412 12.0148V10.7186C198.412 10.3786 198.659 10.1324 198.999 10.1324H205.077C205.417 10.1324 205.664 10.3786 205.664 10.7186V20.6236C205.664 20.6236 203.595 22.4749 198.875 22.4749" fill="#5B5F63"/>
<path d="M218.15 14.5999V21.5724C218.15 21.9124 217.904 22.1586 217.564 22.1586H216.114C215.774 22.1586 215.526 21.9124 215.526 21.5724V14.5999L209.325 0.867355C209.17 0.559855 209.386 0.252365 209.726 0.252365H211.485C211.824 0.252365 212.101 0.529857 212.225 0.837357L216.854 11.5136L221.451 0.837357C221.574 0.529857 221.852 0.252365 222.192 0.252365H223.951C224.291 0.252365 224.505 0.559855 224.352 0.867355L218.15 14.5999Z" fill="#5B5F63"/>
<path d="M243.987 22.4749C241.612 22.4749 239.235 21.8273 239.235 21.8273C238.835 21.7348 238.65 21.5486 238.65 21.2111V19.7911C238.65 19.4511 238.835 19.2661 239.235 19.3273C239.235 19.3273 241.921 20.0074 243.741 20.0074C246.086 20.0074 247.752 19.0486 247.752 16.5499V15.6236C247.752 13.5586 246.642 12.9098 244.82 12.2611L242.815 11.5511C240.747 10.8111 238.805 9.67109 238.805 6.36859V5.59735C238.805 1.83235 241.395 -0.0489044 245.067 -0.0489044C247.351 -0.0489044 249.48 0.474854 249.48 0.474854C249.881 0.567354 250.066 0.752346 250.066 1.09235V2.44984C250.066 2.78859 249.881 2.97485 249.48 2.9111C249.48 2.9111 247.135 2.41859 245.13 2.41859C242.784 2.41859 241.426 3.43735 241.426 5.59735V6.36859C241.426 7.87984 242.476 8.6211 243.895 9.11485L245.87 9.82484C248.122 10.6261 250.375 11.8611 250.375 15.6236V16.5499C250.375 20.9011 247.782 22.4749 243.987 22.4749" fill="#5B5F63"/>
<path d="M267.363 2.72485H262.486V21.5773C262.486 21.9173 262.24 22.1636 261.9 22.1636H260.45C260.11 22.1636 259.864 21.9173 259.864 21.5773V2.72485H254.956C254.618 2.72485 254.371 2.4786 254.371 2.1386V0.842346C254.371 0.503596 254.618 0.257355 254.956 0.257355H267.363C267.701 0.257355 267.948 0.503596 267.948 0.842346V2.1386C267.948 2.4786 267.701 2.72485 267.363 2.72485" fill="#5B5F63"/>
<path d="M282.288 7.04984C282.288 4.67359 281.176 2.42108 278.121 2.42108C275.065 2.42108 273.955 4.67359 273.955 7.04984V15.3798C273.955 17.7561 275.065 20.0098 278.121 20.0098C281.176 20.0098 282.288 17.7561 282.288 15.3798V7.04984ZM278.121 22.4773C273.401 22.4773 271.333 19.4848 271.333 15.3798V7.04984C271.333 2.94608 273.401 -0.0464172 278.121 -0.0464172C282.841 -0.0464172 284.909 2.94608 284.909 7.04984V15.3798C284.909 19.4848 282.841 22.4773 278.121 22.4773Z" fill="#5B5F63"/>
<path d="M296.925 2.72485H293.377V10.4386H296.925C299.674 10.4386 301.091 8.9586 301.091 6.58235C301.091 4.2061 299.674 2.72485 296.925 2.72485V2.72485ZM303.901 22.1636H301.987C301.616 22.1636 301.4 21.8561 301.215 21.5773L296.064 12.9073H293.377V21.5773C293.377 21.9173 293.131 22.1636 292.791 22.1636H291.341C291.002 22.1636 290.755 21.9173 290.755 21.5773V0.842346C290.755 0.503596 291.002 0.257355 291.341 0.257355H296.925C301.37 0.257355 303.715 2.4786 303.715 6.58235C303.715 10.0074 302.111 12.1048 299.026 12.7211L304.3 21.5773C304.486 21.8561 304.239 22.1636 303.901 22.1636" fill="#5B5F63"/>
<path d="M315.675 4.48735L312.28 15.3786H319.039L315.675 4.48735V4.48735ZM323.296 22.1673H321.599C321.26 22.1673 321.044 21.9211 320.952 21.5811L319.81 17.8486H311.51L310.367 21.5811C310.275 21.9211 310.059 22.1673 309.719 22.1673H308.022C307.682 22.1673 307.497 21.9211 307.591 21.5811L314.162 0.8461C314.255 0.50735 314.501 0.261093 314.841 0.261093H316.476C316.816 0.261093 317.064 0.50735 317.156 0.8461L323.727 21.5811C323.821 21.9211 323.635 22.1673 323.296 22.1673" fill="#5B5F63"/>
<path d="M334.4 22.4749C329.679 22.4749 327.611 19.4823 327.611 15.3773V7.6636C327.611 2.97485 329.958 -0.0489044 335.018 -0.0489044C337.764 -0.0489044 340.016 0.659851 340.016 0.659851C340.386 0.752351 340.57 0.907344 340.57 1.24609V2.63484C340.57 2.97484 340.324 3.15985 339.984 3.0986C339.984 3.0986 337.208 2.41859 335.018 2.41859C331.593 2.41859 330.234 4.70235 330.234 7.6636V15.3773C330.234 17.7536 331.344 20.0074 334.4 20.0074C336.991 20.0074 338.566 19.1436 338.566 19.1436V12.6011H334.523C334.184 12.6011 333.936 12.3536 333.936 12.0148V10.7186C333.936 10.3786 334.184 10.1324 334.523 10.1324H340.603C340.941 10.1324 341.188 10.3786 341.188 10.7186V20.6236C341.188 20.6236 339.12 22.4749 334.4 22.4749" fill="#5B5F63"/>
<path d="M357.4 22.1624H347.619C347.277 22.1624 347.031 21.9161 347.031 21.5761V0.841095C347.031 0.502345 347.277 0.256104 347.619 0.256104H357.4C357.739 0.256104 357.986 0.502345 357.986 0.841095V2.13734C357.986 2.47734 357.739 2.7236 357.4 2.7236H349.655V9.82109H356.783C357.121 9.82109 357.367 10.0673 357.367 10.4073V11.7023C357.367 12.0423 357.121 12.2886 356.783 12.2886H349.655V19.6949H357.4C357.739 19.6949 357.986 19.9411 357.986 20.2811V21.5761C357.986 21.9161 357.739 22.1624 357.4 22.1624Z" fill="#5B5F63"/>
</g>
<defs>
<clipPath id="clip0_5761_2337">
<rect width="357.989" height="209.75" fill="white"/>
</clipPath>
</defs>
</svg>
