<?xml version="1.0" encoding="utf-8"?>
<!-- Generator: Adobe Illustrator 21.0.0, SVG Export Plug-In . SVG Version: 6.00 Build 0)  -->
<svg version="1.1" id="Layer_1" xmlns="http://www.w3.org/2000/svg" xmlns:xlink="http://www.w3.org/1999/xlink" x="0px" y="0px"
	 viewBox="0 0 101.5 34.7" style="enable-background:new 0 0 101.5 34.7;" xml:space="preserve">
<style type="text/css">
	.st0{fill:url(#SVGID_1_);}
	.st1{fill:url(#SVGID_2_);}
	.st2{fill:url(#SVGID_3_);}
	.st3{fill:url(#SVGID_4_);}
</style>
<linearGradient id="SVGID_1_" gradientUnits="userSpaceOnUse" x1="37.0255" y1="3.1087" x2="37.0255" y2="33.4807">
	<stop  offset="0" style="stop-color:#00AFE6"/>
	<stop  offset="0.1503" style="stop-color:#00AFE6"/>
	<stop  offset="0.2636" style="stop-color:#00A6E0"/>
	<stop  offset="0.7387" style="stop-color:#0085C9"/>
	<stop  offset="0.9996" style="stop-color:#0079C0"/>
	<stop  offset="1" style="stop-color:#0079C0"/>
</linearGradient>
<path class="st0" d="M33.6,2.4c-0.8,0-1.4,0.6-1.4,1.4V33h8.2c0.8,0,1.4-0.6,1.4-1.4V2.4H33.6z"/>
<linearGradient id="SVGID_2_" gradientUnits="userSpaceOnUse" x1="59.94" y1="3.1087" x2="59.94" y2="33.4807">
	<stop  offset="0" style="stop-color:#00AFE6"/>
	<stop  offset="0.1503" style="stop-color:#00AFE6"/>
	<stop  offset="0.2636" style="stop-color:#00A6E0"/>
	<stop  offset="0.7387" style="stop-color:#0085C9"/>
	<stop  offset="0.9996" style="stop-color:#0079C0"/>
	<stop  offset="1" style="stop-color:#0079C0"/>
</linearGradient>
<path class="st1" d="M45.1,2.4c-0.8,0-1.4,0.6-1.4,1.4v7.4h9.8l0,0V33h8.2c0.8,0,1.4-0.6,1.4-1.4V11.2h9.9l3.3-8.8H45.1z"/>
<linearGradient id="SVGID_3_" gradientUnits="userSpaceOnUse" x1="15.9925" y1="3.1087" x2="15.9925" y2="33.4807">
	<stop  offset="0" style="stop-color:#00AFE6"/>
	<stop  offset="0.1503" style="stop-color:#00AFE6"/>
	<stop  offset="0.2636" style="stop-color:#00A6E0"/>
	<stop  offset="0.7387" style="stop-color:#0085C9"/>
	<stop  offset="0.9996" style="stop-color:#0079C0"/>
	<stop  offset="1" style="stop-color:#0079C0"/>
</linearGradient>
<path class="st2" d="M2.4,12L2.4,12c0,6.8,6.5,8.7,13.1,10.1c3.4,0.7,4.5,1.2,4.5,2.2v0.1c0,1-1,1.5-2.8,1.5c-4,0-8.6-1.5-11.7-3.8
	l-3.9,7.3c3.6,2.8,9.2,4.5,15.2,4.5c8.5,0,13.7-4,13.7-10.5v-0.1c0-6.3-5.3-8.5-13.3-10c-3.2-0.6-4.3-1.2-4.3-2.2V11
	c0-0.4,0.2-1.4,2.4-1.4c2.6,0,6.5,0.6,10.4,3.6l4-7.4c-3.7-2.9-8.1-4.2-14-4.2C7.6,1.5,2.4,5.6,2.4,12"/>
<linearGradient id="SVGID_4_" gradientUnits="userSpaceOnUse" x1="83.678" y1="3.1087" x2="83.678" y2="33.4807">
	<stop  offset="0" style="stop-color:#00AFE6"/>
	<stop  offset="0.1503" style="stop-color:#00AFE6"/>
	<stop  offset="0.2636" style="stop-color:#00A6E0"/>
	<stop  offset="0.7387" style="stop-color:#0085C9"/>
	<stop  offset="0.9996" style="stop-color:#0079C0"/>
	<stop  offset="1" style="stop-color:#0079C0"/>
</linearGradient>
<path class="st3" d="M79.5,2.4c-0.8,0-1.5,0.5-1.8,1.2L66.6,33h10.5l6.6-17.4l2.1,5.5h-2.3l-3,8h8.3l1.4,3.8h10.5L89.7,3.6
	c-0.3-0.7-1-1.2-1.8-1.2H79.5z"/>
</svg>
