<svg width="40" height="40" viewBox="0 0 40 40" fill="none" xmlns="http://www.w3.org/2000/svg">
<path d="M4.94992 21.5333C4.45785 21.829 4.05047 22.2467 3.76723 22.746C3.484 23.2453 3.33451 23.8093 3.33325 24.3833V29.7833C3.33451 30.3574 3.484 30.9214 3.76723 31.4207C4.05047 31.92 4.45785 32.3377 4.94992 32.6333L9.94992 35.6333C10.4684 35.9448 11.0618 36.1094 11.6666 36.1094C12.2714 36.1094 12.8648 35.9448 13.3833 35.6333L19.9999 31.6667V22.5L11.6666 17.5L4.94992 21.5333Z" stroke="#469585" stroke-width="4.21875" stroke-linecap="round" stroke-linejoin="round"/>
<path d="M11.6666 27.5L3.7666 22.75" stroke="#469585" stroke-width="4.21875" stroke-linecap="round" stroke-linejoin="round"/>
<path d="M11.6667 27.5L20.0001 22.5" stroke="#469585" stroke-width="4.21875" stroke-linecap="round" stroke-linejoin="round"/>
<path d="M11.6667 27.5V36.1167" stroke="#469585" stroke-width="4.21875" stroke-linecap="round" stroke-linejoin="round"/>
<path d="M20 22.5V31.6667L26.6167 35.6333C27.1351 35.9448 27.7285 36.1094 28.3333 36.1094C28.9381 36.1094 29.5316 35.9448 30.05 35.6333L35.05 32.6333C35.5421 32.3377 35.9495 31.92 36.2327 31.4207C36.5159 30.9214 36.6654 30.3574 36.6667 29.7833V24.3833C36.6654 23.8093 36.5159 23.2453 36.2327 22.746C35.9495 22.2467 35.5421 21.829 35.05 21.5333L28.3333 17.5L20 22.5Z" stroke="#469585" stroke-width="4.21875" stroke-linecap="round" stroke-linejoin="round"/>
<path d="M28.3333 27.5L20 22.5" stroke="#469585" stroke-width="4.21875" stroke-linecap="round" stroke-linejoin="round"/>
<path d="M28.3333 27.5L36.2333 22.75" stroke="#469585" stroke-width="4.21875" stroke-linecap="round" stroke-linejoin="round"/>
<path d="M28.3333 27.5V36.1167" stroke="#469585" stroke-width="4.21875" stroke-linecap="round" stroke-linejoin="round"/>
<path d="M13.2834 7.36663C12.7913 7.66226 12.384 8.07996 12.1007 8.57927C11.8175 9.07858 11.668 9.64258 11.6667 10.2166V17.5L20.0001 22.5L28.3334 17.5V10.2166C28.3322 9.64258 28.1827 9.07858 27.8994 8.57927C27.6162 8.07996 27.2088 7.66226 26.7167 7.36663L21.7167 4.36663C21.1983 4.05515 20.6049 3.89059 20.0001 3.89059C19.3953 3.89059 18.8019 4.05515 18.2834 4.36663L13.2834 7.36663Z" stroke="#469585" stroke-width="4.21875" stroke-linecap="round" stroke-linejoin="round"/>
<path d="M20.0001 13.3333L12.1001 8.58334" stroke="#469585" stroke-width="4.21875" stroke-linecap="round" stroke-linejoin="round"/>
<path d="M20 13.3333L27.9 8.58334" stroke="#469585" stroke-width="4.21875" stroke-linecap="round" stroke-linejoin="round"/>
<path d="M20 22.5V13.3333" stroke="#469585" stroke-width="4.21875" stroke-linecap="round" stroke-linejoin="round"/>
</svg>
