<svg width="40" height="40" viewBox="0 0 40 40" fill="none" xmlns="http://www.w3.org/2000/svg">
<path d="M13.8333 16.6666C13.6184 16.6784 13.4045 16.6305 13.2152 16.5282C13.0259 16.4259 12.8685 16.2733 12.7606 16.0872C12.6526 15.9011 12.5982 15.6887 12.6034 15.4736C12.6086 15.2585 12.6731 15.049 12.7899 14.8683L18.9999 4.99998C19.0975 4.82426 19.2388 4.67673 19.4102 4.5717C19.5816 4.46666 19.7772 4.40768 19.978 4.40047C20.1789 4.39326 20.3782 4.43807 20.5567 4.53055C20.7351 4.62303 20.8867 4.76004 20.9966 4.92832L27.1666 14.8333C27.2882 15.008 27.3597 15.2126 27.3734 15.4249C27.3871 15.6373 27.3425 15.8494 27.2443 16.0382C27.1461 16.2271 26.9981 16.3854 26.8164 16.4962C26.6347 16.607 26.4261 16.6659 26.2133 16.6666H13.8333Z" stroke="#469585" stroke-width="4.16667" stroke-linecap="round" stroke-linejoin="round"/>
<path d="M15 23.3333H6.66667C5.74619 23.3333 5 24.0795 5 25V33.3333C5 34.2538 5.74619 35 6.66667 35H15C15.9205 35 16.6667 34.2538 16.6667 33.3333V25C16.6667 24.0795 15.9205 23.3333 15 23.3333Z" stroke="#469585" stroke-width="4.16667" stroke-linecap="round" stroke-linejoin="round"/>
<path d="M29.1666 35C32.3882 35 34.9999 32.3883 34.9999 29.1667C34.9999 25.945 32.3882 23.3333 29.1666 23.3333C25.9449 23.3333 23.3333 25.945 23.3333 29.1667C23.3333 32.3883 25.9449 35 29.1666 35Z" stroke="#469585" stroke-width="4.16667" stroke-linecap="round" stroke-linejoin="round"/>
</svg>
