<svg width="64" height="64" viewBox="0 0 64 64" fill="none" xmlns="http://www.w3.org/2000/svg">
<rect width="64" height="64" rx="6" fill="#D2D2D2"/>
<g clip-path="url(#clip0_133_278)">
<path d="M50.3334 32C50.3334 29.3478 49.2798 26.8043 47.4045 24.9289C45.5291 23.0536 42.9856 22 40.3334 22C36.0001 22 32.4167 25.4167 30.4167 31.5C28.9167 36.0833 26.4167 38.6667 23.6667 38.6667C21.8986 38.6667 20.2029 37.9643 18.9527 36.714C17.7025 35.4638 17.0001 33.7681 17.0001 32C17.0001 30.2319 17.7025 28.5362 18.9527 27.286C20.2029 26.0357 21.8986 25.3333 23.6667 25.3333H24.6667L23.3334 26.6667C23.1523 26.827 23.0103 27.0268 22.9183 27.2505C22.8264 27.4743 22.7869 27.7162 22.803 27.9576C22.8191 28.199 22.8903 28.4335 23.0111 28.6431C23.132 28.8527 23.2992 29.0318 23.5001 29.1667C23.8345 29.4088 24.2438 29.5248 24.6555 29.4943C25.0673 29.4638 25.455 29.2887 25.7501 29L29.8334 24.8333C29.9951 24.685 30.1241 24.5047 30.2124 24.3039C30.3007 24.103 30.3463 23.8861 30.3463 23.6667C30.3463 23.4473 30.3007 23.2303 30.2124 23.0295C30.1241 22.8286 29.9951 22.6483 29.8334 22.5L25.7501 18.3333C25.455 18.0446 25.0673 17.8695 24.6555 17.839C24.2438 17.8085 23.8345 17.9246 23.5001 18.1667C23.2992 18.3016 23.132 18.4807 23.0111 18.6903C22.8903 18.8999 22.8191 19.1344 22.803 19.3758C22.7869 19.6172 22.8264 19.859 22.9183 20.0828C23.0103 20.3066 23.1523 20.5063 23.3334 20.6667L24.6667 22H23.6667C21.0146 22 18.471 23.0536 16.5957 24.9289C14.7203 26.8043 13.6667 29.3478 13.6667 32C13.6667 34.6522 14.7203 37.1957 16.5957 39.0711C18.471 40.9464 21.0146 42 23.6667 42C28.0001 42 31.5834 38.5833 33.5834 32.5C35.0834 27.9167 37.5834 25.3333 40.3334 25.3333C42.1015 25.3333 43.7972 26.0357 45.0475 27.286C46.2977 28.5362 47.0001 30.2319 47.0001 32C47.0001 33.7681 46.2977 35.4638 45.0475 36.714C43.7972 37.9643 42.1015 38.6667 40.3334 38.6667H39.3334L40.6667 37.3333C40.8479 37.173 40.9899 36.9732 41.0819 36.7495C41.1738 36.5257 41.2132 36.2838 41.1971 36.0424C41.181 35.801 41.1098 35.5665 40.989 35.3569C40.8682 35.1473 40.7009 34.9682 40.5001 34.8333C40.1656 34.5912 39.7564 34.4752 39.3446 34.5057C38.9329 34.5362 38.5452 34.7113 38.2501 35L34.1667 39.1667C34.0051 39.315 33.876 39.4953 33.7877 39.6961C33.6994 39.897 33.6538 40.1139 33.6538 40.3333C33.6538 40.5527 33.6994 40.7697 33.7877 40.9706C33.876 41.1714 34.0051 41.3517 34.1667 41.5L38.2501 45.6667C38.5452 45.9554 38.9329 46.1305 39.3446 46.161C39.7564 46.1915 40.1656 46.0754 40.5001 45.8333C40.7009 45.6984 40.8682 45.5193 40.989 45.3097C41.1098 45.1001 41.181 44.8656 41.1971 44.6242C41.2132 44.3829 41.1738 44.141 41.0819 43.9172C40.9899 43.6934 40.8479 43.4937 40.6667 43.3333L39.3334 42H40.3334C42.9856 42 45.5291 40.9464 47.4045 39.0711C49.2798 37.1957 50.3334 34.6522 50.3334 32Z" fill="#171717"/>
</g>
<defs>
<clipPath id="clip0_133_278">
<rect width="40" height="40" fill="white" transform="translate(12 12)"/>
</clipPath>
</defs>
</svg>
