<svg width="40" height="40" viewBox="0 0 40 40" fill="none" xmlns="http://www.w3.org/2000/svg">
<path d="M20.0001 33.3333C27.3639 33.3333 33.3334 27.3638 33.3334 20C33.3334 12.6362 27.3639 6.66666 20.0001 6.66666C12.6363 6.66666 6.66675 12.6362 6.66675 20C6.66675 27.3638 12.6363 33.3333 20.0001 33.3333Z" stroke="#469585" stroke-width="4.16667" stroke-linecap="round" stroke-linejoin="round"/>
<path d="M20 3.33334V15.8333" stroke="#469585" stroke-width="4.16667" stroke-linecap="round" stroke-linejoin="round"/>
<path d="M31.6666 8.33334L22.95 17.05" stroke="#469585" stroke-width="4.16667" stroke-linecap="round" stroke-linejoin="round"/>
<path d="M36.6667 20H24.1667" stroke="#469585" stroke-width="4.16667" stroke-linecap="round" stroke-linejoin="round"/>
<path d="M31.6666 31.6667L22.95 22.95" stroke="#469585" stroke-width="4.16667" stroke-linecap="round" stroke-linejoin="round"/>
<path d="M20 24.1667V36.6667" stroke="#469585" stroke-width="4.16667" stroke-linecap="round" stroke-linejoin="round"/>
<path d="M17.0499 22.95L8.33325 31.6667" stroke="#469585" stroke-width="4.16667" stroke-linecap="round" stroke-linejoin="round"/>
<path d="M15.8333 20H3.33325" stroke="#469585" stroke-width="4.16667" stroke-linecap="round" stroke-linejoin="round"/>
<path d="M17.0499 17.05L8.33325 8.33334" stroke="#469585" stroke-width="4.16667" stroke-linecap="round" stroke-linejoin="round"/>
<path d="M19.9999 24.1667C22.3011 24.1667 24.1666 22.3012 24.1666 20C24.1666 17.6988 22.3011 15.8333 19.9999 15.8333C17.6987 15.8333 15.8333 17.6988 15.8333 20C15.8333 22.3012 17.6987 24.1667 19.9999 24.1667Z" stroke="#469585" stroke-width="4.16667" stroke-linecap="round" stroke-linejoin="round"/>
</svg>
