<svg width="143" height="40" viewBox="0 0 143 40" fill="none" xmlns="http://www.w3.org/2000/svg">
<g clip-path="url(#clip0_133_433)">
<path d="M67.6931 14.1059H63.0132L54.7679 23.2545V7.7721H51.0382L51.0208 33.1067H54.7679V23.9582L62.7204 33.1067H67.717L59.0257 23.6063L67.6931 14.1059ZM71.2021 7.7273H74.8791V33.1066H71.2021V7.7273ZM130.069 7.70093H126.374V14.1059H122.733V17.0616H126.374V25.6296C126.374 26.6618 126.389 27.5854 126.418 28.4004C126.447 29.2159 126.668 30.0162 127.078 30.8021C127.536 31.6817 128.216 32.3268 129.119 32.7373C130.022 33.1478 131.048 33.3706 132.198 33.4056C133.347 33.4411 134.52 33.3411 135.717 33.1067V29.9928C134.473 30.1689 133.391 30.2071 132.47 30.1071C131.55 30.0078 130.879 29.5944 130.456 28.8668C130.233 28.4795 130.113 28.0047 130.095 27.4418C130.078 26.8787 130.069 26.2161 130.069 25.4537V17.0616H135.717V14.1059H130.069V7.70093ZM139.161 7.7273H142.838V33.1066H139.161V7.7273ZM109.718 17.8973C110.491 17.3282 111.482 17.0437 112.691 17.0437C113.758 17.0437 114.705 17.3403 115.532 17.9325C116.359 18.525 116.954 19.3548 117.318 20.422L120.977 19.3664C120.508 17.5716 119.537 16.1587 118.066 15.1265C116.593 14.0941 114.819 13.5782 112.743 13.5782C110.82 13.5782 109.172 14.0062 107.8 14.8626C106.698 15.5499 105.81 16.457 105.117 17.5635L105.107 17.5506C105.107 17.5506 104.656 18.4092 103.327 18.7156C101.884 18.911 100.425 18.9532 98.974 18.8415C96.0884 18.4056 95.6078 15.9155 95.5453 14.7326V14.106H91.6366V23.9932C91.6366 25.1194 91.5105 26.0758 91.2584 26.8613C91.0062 27.647 90.6601 28.2803 90.2202 28.7614C89.7804 29.2426 89.2673 29.5913 88.6808 29.8082C88.0943 30.0251 87.4725 30.1335 86.8158 30.1335C85.807 30.1335 84.989 29.9284 84.3618 29.5176C83.734 29.1074 83.2472 28.5676 82.9014 27.8994C82.5554 27.2306 82.3206 26.5065 82.1977 25.7267C82.0746 24.9466 82.0128 24.1872 82.0128 23.4481V14.1058H78.2831V24.6618C78.2831 25.2485 78.336 25.9285 78.4415 26.7026C78.5471 27.4769 78.7463 28.2686 79.0397 29.0778C79.3326 29.8869 79.7577 30.6347 80.3152 31.321C80.872 32.0072 81.5962 32.5614 82.488 32.9837C83.3789 33.4058 84.4818 33.6171 85.7954 33.6171C87.508 33.6171 88.9682 33.2476 90.1764 32.5085C90.9208 32.0531 91.5455 31.4736 92.0765 30.7974V33.1069H95.5452V30.1171C95.6058 29.8849 95.9403 29.1055 97.6544 28.751C98.9508 28.5222 100.61 28.4848 102.608 28.9274C103.643 29.1569 104.607 29.6225 105.406 30.3194C105.677 30.5554 105.97 30.8087 106.283 31.1406C106.72 31.5831 107.193 31.9904 107.729 32.3325C109.09 33.2004 110.744 33.6346 112.691 33.6346C114.732 33.6346 116.467 33.1391 117.898 32.1481C119.329 31.1572 120.355 29.735 120.977 27.8818L117.247 27.002C116.86 28.0222 116.3 28.8054 115.567 29.3506C114.834 29.896 113.875 30.1688 112.691 30.1688C110.955 30.1688 109.644 29.5648 108.759 28.3566C107.873 27.1488 107.424 25.5652 107.412 23.6062C107.424 22.3399 107.617 21.2135 107.993 20.2284C108.368 19.243 108.943 18.4663 109.718 17.8974V17.8973ZM96.8773 20.3921C97.8652 20.5705 99.0957 20.7131 100.516 20.7131C101.249 20.7131 102.033 20.6736 102.858 20.5834C102.881 20.5831 102.904 20.5829 102.914 20.586C102.956 20.5982 103.036 20.7075 102.635 20.8924C101.94 21.12 100.989 21.2742 99.6549 21.2742C98.3579 21.2742 97.4719 21.0199 96.8632 20.6684C96.776 20.6041 96.7005 20.5285 96.7091 20.4517C96.715 20.3972 96.7967 20.3879 96.8773 20.3921ZM102.269 22.2184C101.801 22.521 101.145 22.7609 100.199 22.8579C99.279 22.9521 98.6218 22.7343 98.1502 22.3892C98.0812 22.3241 98.0192 22.2457 98.0164 22.16C98.0146 22.0989 98.0714 22.0828 98.1288 22.0817C98.9929 22.2324 99.8735 22.2633 100.746 22.1735C101.266 22.1204 101.817 22.0197 102.392 21.8598C102.408 21.8578 102.425 21.8559 102.432 21.8584C102.463 21.8689 102.532 21.9843 102.269 22.2184ZM102.401 26.7262C100.409 26.3555 98.7036 26.415 97.3156 26.6658C97.0681 26.6717 96.8318 26.6006 96.8318 26.4577C96.8318 26.3709 96.9183 26.281 97.0098 26.2067C98.0861 25.5198 99.4268 25.4575 99.9495 25.4575C101.087 25.4575 101.963 25.7 102.639 26.0629L102.638 26.0652C102.638 26.0652 103.018 26.3057 102.957 26.4831C102.898 26.6526 102.776 26.7709 102.401 26.7262Z" fill="white"/>
<path d="M38.1627 21.1242C37.5801 20.9589 36.9941 20.9434 36.443 21.0515C32.8095 21.7648 29.2062 21.3013 27.3745 20.9598C26.6769 20.8297 26.1516 20.2841 25.9973 19.5915C25.9941 19.5773 25.9909 19.5631 25.9876 19.5489C25.8281 18.8582 26.0581 18.1369 26.6297 17.7177C28.0579 16.6703 30.9439 14.8167 34.7642 13.7013C35.6397 13.4456 36.4792 12.9385 37.0315 11.9491C37.6719 10.802 37.6731 9.3665 36.9905 8.2439C35.813 6.30749 33.255 5.89734 31.542 7.26391C31.1154 7.60421 30.7817 8.01856 30.5536 8.47711C28.9338 11.7324 26.2762 14.2722 24.8453 15.4902C24.3069 15.9485 23.5568 16.0145 22.9212 15.7047C22.9066 15.6976 22.892 15.6905 22.8773 15.6836C22.2378 15.3786 21.8239 14.7465 21.8504 14.0385C21.9211 12.1501 22.2646 8.4683 23.7799 5.17453C24.0113 4.67152 24.1199 4.10287 24.0927 3.50739C24.01 1.69957 22.6869 0.253752 20.8911 0.0296187C18.6477 -0.250331 16.7382 1.49146 16.7382 3.67918C16.7382 4.15669 16.827 4.6137 16.9947 5.03146C18.6073 9.04803 18.9547 12.323 19.0102 14.0282C19.0332 14.7353 18.6232 15.37 17.9831 15.6714C17.9652 15.6799 17.9473 15.6884 17.9295 15.697C17.2864 16.008 16.5285 15.9374 15.9896 15.4687C14.5367 14.205 11.8231 11.5846 10.2623 8.44606C10.017 7.953 9.64061 7.51675 9.16163 7.1677C7.70499 6.10612 5.75576 6.22797 4.45757 7.47836C2.81966 9.05604 2.98551 11.6498 4.70273 13.0192C5.12936 13.3594 5.60681 13.5959 6.10535 13.713C9.61777 14.5388 12.7018 16.5842 14.2129 17.7166C14.7778 18.1399 15.0084 18.8551 14.8487 19.5428C14.8445 19.5608 14.8405 19.5789 14.8365 19.597C14.6832 20.288 14.1594 20.8323 13.464 20.9647C11.6185 21.3159 7.9778 21.7972 4.39207 21.0543C3.84846 20.9417 3.26853 20.9615 2.69248 21.1217C0.945211 21.6078 -0.16751 23.2256 0.0203693 25.0295C0.253916 27.2712 2.37273 28.7382 4.50136 28.2523C4.96692 28.146 5.39523 27.9611 5.76271 27.7012C9.20729 25.2637 12.4206 24.1778 14.1051 23.7351C14.7839 23.5567 15.4863 23.8252 15.9194 24.3775C15.932 24.3936 15.9446 24.4095 15.9573 24.4254C16.4019 24.98 16.5007 25.7314 16.1672 26.3591C15.2714 28.0451 13.3412 31.249 10.5899 33.5049C10.1637 33.8544 9.82167 34.3187 9.58793 34.8639C8.87734 36.5217 9.43203 38.3955 10.9421 39.3818C12.8443 40.6241 15.3335 39.8847 16.2857 37.9071C16.5224 37.4155 16.65 36.8974 16.65 36.3853C16.65 32.9083 17.9845 29.3596 18.7572 27.5964C19.038 26.9556 19.6752 26.5573 20.3748 26.5658C20.4154 26.5663 20.456 26.5665 20.4967 26.5663C20.8334 26.5645 21.1633 26.6614 21.4455 26.8452C21.7276 27.0289 21.9497 27.2913 22.0843 27.5999C22.8284 29.3009 24.0863 32.6989 24.1884 36.4218C24.2037 36.9812 24.3503 37.5467 24.6391 38.0762C25.5133 39.6788 27.3549 40.3924 29.0765 39.7853C31.1821 39.0426 32.123 36.668 31.1814 34.7132C30.9742 34.283 30.6983 33.9071 30.3635 33.6063C27.1745 30.7419 25.423 27.8831 24.6317 26.3551C24.3105 25.7348 24.417 24.9935 24.857 24.4509C24.8764 24.427 24.8956 24.4029 24.9147 24.3786C25.3484 23.8257 26.052 23.5569 26.7313 23.7365C28.4107 24.1805 31.6116 25.2668 35.0733 27.6987C35.4416 27.9575 35.8691 28.1434 36.3347 28.2496C38.3499 28.7093 40.356 27.4187 40.762 25.3778C41.1301 23.5272 39.9778 21.6395 38.1625 21.1244L38.1627 21.1242Z" fill="#51A684"/>
<path d="M38.8173 22.5581C38.6373 22.4276 38.3763 22.2749 38.2043 22.1974C38.2043 22.1974 37.4789 21.7979 36.2344 22.0936C36.2344 22.0936 34.973 22.3254 34.0304 22.368C34.0304 22.368 34.1242 22.8048 35.2306 22.8392C36.2503 22.8709 37.0316 22.4429 37.9693 23.093C38.002 23.1172 38.0329 23.1407 38.0669 23.1654C38.0797 23.1746 38.0918 23.1849 38.1044 23.1945C38.1358 23.2194 38.167 23.2427 38.1989 23.2702C38.7231 23.716 39.0584 24.3812 39.2607 24.1968C39.571 23.9139 39.4181 22.9938 38.8172 22.5581H38.8173ZM36.3699 9.25427C36.2434 8.94221 36.1267 8.71694 35.9633 8.51458C35.9633 8.51458 35.4016 7.55749 34.0052 7.47022C32.5588 7.37982 31.7861 8.40915 31.7861 8.40915C31.7861 8.40915 32.5879 8.07619 33.4482 8.09762C34.4334 8.12219 35.2237 8.91263 35.3429 9.89095C35.4225 10.5444 35.4541 11.1107 35.8502 11.1107C36.5623 11.1107 36.6776 10.0133 36.3699 9.25427ZM22.478 1.937C22.3735 1.82637 21.5523 0.791026 19.9423 1.03826C19.7947 1.06089 19.6495 1.10162 19.5097 1.15397C19.3366 1.2188 19.1054 1.32215 18.894 1.47117C18.894 1.47117 20.9561 1.2204 21.5775 2.65012C21.5775 2.65012 22.1017 4.09514 22.7382 3.90452C22.7585 3.90352 22.7789 3.89885 22.7994 3.88616C23.1878 3.64667 23.0317 2.52374 22.4779 1.93693L22.478 1.937ZM7.3653 8.63395C6.71179 8.28837 7.1899 7.30905 7.86684 7.60609C7.99543 7.66251 8.36679 7.82181 8.49024 7.91054C9.73155 8.80274 8.96347 8.84927 11.2421 11.865C11.2421 11.865 10.1621 11.5359 8.48636 9.54217C8.17931 9.17683 7.81176 8.8699 7.38987 8.6469L7.3653 8.63395ZM30.5281 36.1422C30.5203 35.9289 30.6012 35.0681 29.3374 34.0222C29.3374 34.0222 28.4155 33.1634 27.8713 32.5764C27.8713 32.5764 27.5506 32.8472 28.1794 33.7043C28.759 34.4943 29.545 34.8318 29.6083 35.9258C29.6094 35.9649 29.6099 36.0022 29.6114 36.0425C29.612 36.0578 29.6114 36.0731 29.6115 36.0884C29.6112 36.1269 29.6122 36.1642 29.6102 36.2044C29.5832 36.8647 29.2786 37.5121 29.5379 37.5559C29.9354 37.6231 30.5542 36.8546 30.5281 36.1422L30.5281 36.1422Z" fill="white"/>
</g>
<defs>
<clipPath id="clip0_133_433">
<rect width="142.838" height="40" fill="white"/>
</clipPath>
</defs>
</svg>
