<svg width="21" height="22" viewBox="0 0 21 22" fill="none" xmlns="http://www.w3.org/2000/svg">
<path d="M14 21V17C14.1392 15.7473 13.78 14.4901 13 13.5C16 13.5 19 11.5 19 8C19.08 6.75 18.73 5.52 18 4.5C18.28 3.35 18.28 2.15 18 1C18 1 17 1 15 2.5C12.36 2 9.64004 2 7.00004 2.5C5.00004 1 4.00004 1 4.00004 1C3.70004 2.15 3.70004 3.35 4.00004 4.5C3.27191 5.51588 2.91851 6.75279 3.00004 8C3.00004 11.5 6.00004 13.5 9.00004 13.5C8.61004 13.99 8.32004 14.55 8.15004 15.15C7.98004 15.75 7.93004 16.38 8.00004 17V21" stroke="black" stroke-width="2" stroke-linecap="round" stroke-linejoin="round"/>
<path d="M8 17C3.49 19 3 15 1 15" stroke="black" stroke-width="2" stroke-linecap="round" stroke-linejoin="round"/>
</svg>
